HIERARCHY
ROOT Hips
{
	OFFSET 0.00 0.00 0.00
	CHANNELS 6 Xposition Yposition Zposition Xrotation Yrotation Zrotation
	JOINT RightUpLeg
	{
		OFFSET -4.47808 0.00000 0.00000
		CHANNELS 3 Xrotation Yrotation Zrotation
		JOINT RightLeg
		{
			OFFSET 0.00000 -16.40577 0.00000
			CHANNELS 3 Xrotation Yrotation Zrotation
			JOINT RightFoot
			{
				OFFSET 0.00000 -14.64414 0.00000
				CHANNELS 3 Xrotation Yrotation Zrotation
				JOINT RightToeBase
				{
					OFFSET 0.00000 -1.50274 5.60831
					CHANNELS 3 Xrotation Yrotation Zrotation
					End Site
					{
						OFFSET 0.00000 0.00000 2.95275
					}
				}
			}
		}
	}
	JOINT LeftUpLeg
	{
		OFFSET 4.47808 0.00000 0.00000
		CHANNELS 3 Xrotation Yrotation Zrotation
		JOINT LeftLeg
		{
			OFFSET 0.00000 -16.40577 0.00000
			CHANNELS 3 Xrotation Yrotation Zrotation
			JOINT LeftFoot
			{
				OFFSET 0.00000 -14.64414 0.00000
				CHANNELS 3 Xrotation Yrotation Zrotation
				JOINT LeftToeBase
				{
					OFFSET 0.00000 -1.50274 5.60831
					CHANNELS 3 Xrotation Yrotation Zrotation
					End Site
					{
						OFFSET 0.00000 0.00000 2.95275
					}
				}
			}
		}
	}
	JOINT Spine
	{
		OFFSET 0.00000 6.06821 0.00000
		CHANNELS 3 Xrotation Yrotation Zrotation
		JOINT RightShoulder
		{
			OFFSET 0.00000 10.01392 0.00000
			CHANNELS 3 Xrotation Yrotation Zrotation
			JOINT RightArm
			{
				OFFSET -7.19022 0.00000 0.00000
				CHANNELS 3 Xrotation Yrotation Zrotation
				JOINT RightForeArm
				{
					OFFSET -10.17747 0.00000 0.00000
					CHANNELS 3 Yrotation Zrotation Xrotation
					JOINT RightHand
					{
						OFFSET -8.39211 0.00000 0.00000
						CHANNELS 3 Xrotation Yrotation Zrotation
						End Site
						{
							OFFSET -3.93700 0.00000 0.00000
						}
						JOINT RightHandThumb1
						{
							OFFSET 0.00000 0.00000 0.00000
							CHANNELS 3 Xrotation Zrotation Yrotation
							End Site
							{
								OFFSET 0.00000 0.00000 3.93700
							}
						}
					}
				}
			}
		}
		JOINT LeftShoulder
		{
			OFFSET 0.00000 10.01392 0.00000
			CHANNELS 3 Xrotation Yrotation Zrotation
			JOINT LeftArm
			{
				OFFSET 7.19022 0.00000 0.00000
				CHANNELS 3 Xrotation Yrotation Zrotation
				JOINT LeftForeArm
				{
					OFFSET 10.17747 0.00000 0.00000
					CHANNELS 3 Yrotation Zrotation Xrotation
					JOINT LeftHand
					{
						OFFSET 8.39211 0.00000 0.00000
						CHANNELS 3 Xrotation Yrotation Zrotation
						End Site
						{
							OFFSET 3.93700 0.00000 0.00000
						}
						JOINT LeftHandThumb1
						{
							OFFSET 0.00000 0.00000 0.00000
							CHANNELS 3 Xrotation Zrotation Yrotation
							End Site
							{
								OFFSET 0.00000 0.00000 3.93700
							}
						}
					}
				}
			}
		}
		JOINT Head
		{
			OFFSET 0.00000 15.77748 0.00000
			CHANNELS 3 Xrotation Yrotation Zrotation
			End Site
			{
				OFFSET 0.00000 4.52755 0.00000
			}
		}
	}
}
MOTION
Frames: 11
Frame Time: 0.008333
 -4.0947 33.0697 -1.2710 8.3501 -2.5297 3.1356 -1.8494 -6.8625 -4.1945 -0.8026 0.0000 -0.0000 -10.9347 -5.2543 -0.7300 3.6769 0.0000 0.0000 -3.0203 6.0460 4.2462 2.5821 0.0000 -0.0000 -8.5966 8.9990 -16.7579 8.7305 0.0000 -0.0000 -11.2009 -2.8476 -2.5264 2.8282 -25.9363 -27.8923 -31.5454 2.9418 34.5849 10.9169 -0.0000 15.6410 -1.8294 9.5183 10.9321 32.8623 0.0000 -24.3270 -9.3846 26.8321 34.2373 -27.7928 0.1904 -30.8499 -0.2474 0.0000 28.0932 0.3709 2.0118 -10.4473 33.1476 -0.0000 26.2537 -3.5050 3.2950 0.8755
 -4.0950 33.0699 -1.2642 8.3563 -2.5166 3.1329 -1.8307 -6.8951 -4.1904 -0.8319 -0.0000 0.0000 -10.9094 -5.2424 -0.7001 3.6487 -0.0000 0.0000 -3.0127 6.0221 4.2468 2.5756 -0.0000 -0.0000 -8.6017 9.0120 -16.7453 8.7407 0.0000 -0.0000 -11.2079 -2.8631 -2.5187 2.8276 -25.9306 -27.8969 -31.5289 2.9619 34.5812 10.9083 -0.0000 15.6328 -1.8076 9.4781 10.8489 32.8623 0.0000 -24.3270 -9.3943 26.8243 34.2308 -27.7591 0.1817 -30.8251 -0.2532 0.0000 28.0866 0.3604 1.9508 -10.4704 33.1476 -0.0000 26.2537 -3.4967 3.2885 0.8898
 -4.0955 33.0692 -1.2592 8.3679 -2.5124 3.1292 -1.8259 -6.8839 -4.1832 -0.8431 0.0000 0.0000 -10.9175 -5.2655 -0.7223 3.6805 0.0000 -0.0000 -3.0693 6.2136 4.2540 2.6506 0.0000 0.0000 -8.6403 8.8386 -16.7281 8.7150 -0.0000 -0.0000 -11.2138 -2.8492 -2.5100 2.8446 -25.9499 -27.8912 -31.5488 2.9590 34.5775 10.9172 -0.0000 15.6211 -1.8229 9.4628 10.9557 32.8623 0.0000 -24.3270 -9.4169 26.7696 34.2328 -27.7107 0.1878 -30.8033 -0.2372 0.0000 28.0911 0.3549 1.9270 -10.4387 33.1476 -0.0000 26.2537 -3.4898 3.2923 0.8752
 -4.0965 33.0688 -1.2542 8.3856 -2.5053 3.1258 -1.8230 -6.8797 -4.1774 -0.8639 0.0000 -0.0000 -10.9116 -5.2757 -0.7077 3.7119 0.0000 0.0000 -3.1109 6.3201 4.2601 2.6960 0.0000 -0.0000 -8.6681 8.7324 -16.6928 8.6129 -0.0000 0.0000 -11.2289 -2.8518 -2.5053 2.8751 -25.9611 -27.8966 -31.5875 2.9206 34.5988 10.9587 -0.0000 15.6413 -1.8206 9.4455 10.9617 32.8623 0.0000 -24.3270 -9.4414 26.7455 34.2513 -27.6932 0.2055 -30.7999 -0.2320 0.0000 28.0837 0.3544 1.9315 -10.4001 33.1476 -0.0000 26.2537 -3.4799 3.3064 0.8722
 -4.0967 33.0679 -1.2479 8.3942 -2.5043 3.1239 -1.8083 -6.8603 -4.1742 -0.8836 0.0000 -0.0000 -10.9115 -5.2898 -0.7395 3.7423 0.0000 -0.0000 -3.1220 6.4051 4.2637 2.7101 -0.0000 0.0000 -8.6818 8.6561 -16.7071 8.6603 -0.0000 -0.0000 -11.2294 -2.8422 -2.5067 2.8441 -25.9464 -27.8887 -31.5334 2.9339 34.5747 10.9731 -0.0000 15.6286 -1.8115 9.4203 10.9367 32.8623 0.0000 -24.3270 -9.4764 26.7390 34.2713 -27.6798 0.1951 -30.8063 -0.2525 0.0000 28.1033 0.3516 1.9082 -10.4429 33.1476 -0.0000 26.2537 -3.4856 3.3150 0.8911
 -4.0966 33.0676 -1.2432 8.4055 -2.4997 3.1274 -1.8035 -6.8609 -4.1766 -0.8995 -0.0000 0.0000 -10.9089 -5.3018 -0.7231 3.6582 -0.0000 -0.0000 -3.1229 6.4090 4.2606 2.7005 0.0000 -0.0000 -8.6786 8.6517 -16.7259 8.6660 -0.0000 0.0000 -11.2475 -2.8369 -2.5080 2.8879 -25.9525 -27.8894 -31.5670 2.9123 34.5920 10.9772 -0.0000 15.6511 -1.8110 9.4266 10.9269 32.8623 0.0000 -24.3270 -9.4470 26.7369 34.2659 -27.7251 0.2138 -30.8150 -0.2588 0.0000 28.1225 0.3532 1.9228 -10.4108 33.1476 -0.0000 26.2537 -3.4344 3.3217 0.8858
 -4.0960 33.0673 -1.2376 8.4218 -2.4964 3.1300 -1.7964 -6.8526 -4.1775 -0.9278 0.0000 0.0000 -10.8989 -5.3194 -0.7187 3.6791 0.0000 -0.0000 -3.1183 6.4028 4.2562 2.6795 -0.0000 0.0000 -8.6702 8.6596 -16.7363 8.6408 0.0000 0.0000 -11.2558 -2.8253 -2.5063 2.8564 -25.9487 -27.9001 -31.5415 2.9094 34.5935 10.9879 -0.0000 15.6788 -1.8329 9.4537 11.0246 32.8623 0.0000 -24.3270 -9.4633 26.7196 34.2597 -27.7182 0.2231 -30.8059 -0.2905 0.0000 28.1177 0.3566 1.9415 -10.4088 33.1476 -0.0000 26.2537 -3.4315 3.2994 0.8713
 -4.0948 33.0671 -1.2316 8.4344 -2.4912 3.1340 -1.7860 -6.8521 -4.1816 -0.9540 -0.0000 0.0000 -10.8930 -5.3260 -0.7173 3.7408 -0.0000 0.0000 -3.0927 6.3363 4.2456 2.6320 0.0000 0.0000 -8.6645 8.7215 -16.7106 8.6806 -0.0000 -0.0000 -11.2607 -2.8167 -2.5019 2.8708 -25.9712 -27.8874 -31.5547 2.9276 34.5905 10.9911 -0.0000 15.6543 -1.8369 9.4867 11.0111 32.8623 0.0000 -24.3270 -9.4538 26.7226 34.2423 -27.7255 0.2228 -30.8077 -0.3212 0.0000 28.0963 0.3591 1.9544 -10.4134 33.1476 -0.0000 26.2537 -3.4252 3.2966 0.8499
 -4.0915 33.0662 -1.2279 8.4620 -2.4790 3.1495 -1.8025 -6.8431 -4.2039 -0.9617 -0.0000 0.0000 -10.9113 -5.3411 -0.7367 3.6964 0.0000 -0.0000 -3.0231 6.0128 4.2197 2.5009 -0.0000 0.0000 -8.6085 9.0007 -16.7535 8.7076 -0.0000 -0.0000 -11.2875 -2.8288 -2.5051 2.8653 -25.9512 -27.9167 -31.5216 2.9294 34.6082 10.9973 -0.0000 15.6050 -1.8375 9.5100 10.9885 32.8623 0.0000 -24.3270 -9.4504 26.7102 34.2273 -27.7006 0.2376 -30.7998 -0.3503 0.0000 28.0627 0.3485 1.8999 -10.3961 33.1476 -0.0000 26.2537 -3.4098 3.3749 0.8136
 -4.0909 33.0659 -1.2235 8.4721 -2.4744 3.1514 -1.7971 -6.8311 -4.2064 -0.9756 0.0000 -0.0000 -10.9105 -5.3553 -0.7339 3.6983 0.0000 -0.0000 -3.0037 5.9672 4.2150 2.4614 0.0000 0.0000 -8.5968 9.0476 -16.7638 8.7453 -0.0000 -0.0000 -11.2931 -2.8273 -2.5107 2.8810 -25.9397 -27.9093 -31.5099 2.9312 34.6152 11.0008 -0.0000 15.5797 -1.8178 9.4909 10.8947 32.8623 0.0000 -24.3270 -9.4222 26.7342 34.2315 -27.7276 0.2426 -30.8308 -0.3922 0.0000 28.0341 0.3573 1.9498 -10.3849 33.1476 -0.0000 26.2537 -3.3782 3.3935 0.8225
 -4.0903 33.0657 -1.2185 8.4934 -2.4694 3.1559 -1.8022 -6.8438 -4.2086 -0.9945 -0.0000 -0.0000 -10.8983 -5.3563 -0.7017 3.6814 -0.0000 -0.0000 -3.0108 5.9774 4.2100 2.4466 0.0000 0.0000 -8.5860 9.0325 -16.7716 8.7101 -0.0000 0.0000 -11.3092 -2.8259 -2.5163 2.8910 -25.9485 -27.9056 -31.4895 2.9701 34.6382 10.9929 -0.0000 15.4944 -1.7863 9.4711 10.7320 32.8623 0.0000 -24.3270 -9.3923 26.7704 34.2210 -27.7649 0.2160 -30.8552 -0.3878 0.0000 28.0081 0.3583 1.9579 -10.3721 33.1476 -0.0000 26.2537 -3.3625 3.3909 0.8109
